<svg xmlns="http://www.w3.org/2000/svg" xmlns:xlink="http://www.w3.org/1999/xlink" xmlns:lucid="lucid" width="3020" height="1160"><g transform="translate(-620 -20)" lucid:page-tab-id="0_0"><path d="M0 0h3677.73v1322.83H0z" fill="#fff"/><path d="M2140 46c0-3.3 2.7-6 6-6h1468c3.3 0 6 2.7 6 6v468c0 3.3-2.7 6-6 6H2146c-3.3 0-6-2.7-6-6z" fill="#fff"/><path d="M2175.66 40h29.65m14.84 0h29.66m14.83 0h29.65m14.83 0h29.67m14.83 0h29.65m14.83 0h29.66m14.83 0h29.65m14.83 0h29.66m14.84 0h29.65m14.82 0h29.66m14.83 0h29.66m14.83 0h29.65m14.82 0h29.66m14.83 0h29.66m14.82 0h29.66m14.83 0h29.66m14.8 0h29.67m14.83 0h29.66m14.82 0h29.66m14.83 0h29.66m14.82 0H3095m14.84 0h29.65m14.82 0h29.66m14.83 0h29.66m14.83 0h29.65m14.83 0h29.65m14.83 0h29.66m14.83 0h29.65m14.83 0h29.66m14.82 0h29.65m14.83 0h29.66m14.83 0h29.64m14.83 0H3614l3.03.82 2.15 2.15.82 3.03v15.6m0 15.6v31.2m0 15.6v31.2m0 15.6V202m0 15.6v31.2m0 15.6v31.2m0 15.6v31.2m0 15.6v31.2m0 15.6V436m0 15.6v31.2m0 15.6V514l-.82 3.03-2.15 2.15-3.03.82h-14.83m-14.83 0h-29.65m-14.84 0h-29.66m-14.83 0h-29.65m-14.83 0h-29.67m-14.83 0h-29.65m-14.83 0h-29.66m-14.83 0h-29.65m-14.83 0h-29.66m-14.84 0h-29.65m-14.82 0h-29.66m-14.83 0h-29.66m-14.83 0h-29.65m-14.82 0h-29.66m-14.83 0h-29.66m-14.82 0h-29.66m-14.83 0h-29.66m-14.8 0h-29.67m-14.83 0h-29.66m-14.82 0h-29.66m-14.83 0h-29.66m-14.82 0H2665m-14.84 0h-29.65m-14.82 0h-29.66m-14.83 0h-29.66m-14.83 0h-29.65m-14.83 0h-29.65m-14.83 0h-29.66m-14.83 0h-29.65m-14.83 0h-29.66m-14.82 0h-29.65m-14.83 0h-29.66m-14.83 0h-29.64m-14.83 0H2146l-3.03-.82-2.15-2.15-.82-3.03v-15.6m0-15.6v-31.2m0-15.6v-31.2m0-15.6V358m0-15.6v-31.2m0-15.6v-31.2m0-15.6v-31.2m0-15.6v-31.2m0-15.6V124m0-15.6V77.2m0-15.6V46l.82-3.03 2.15-2.15L2146 40h14.83" stroke="#5e5e5e" stroke-width="3" fill="none"/><path d="M640 396c0-3.3 2.7-6 6-6h828c3.3 0 6 2.7 6 6v468c0 3.3-2.7 6-6 6H646c-3.3 0-6-2.7-6-6z" fill="#fff"/><path d="M663.74 390h11.83m11.83 0h11.83m11.83 0h11.83m11.8 0h11.84m11.83 0h11.83m11.83 0h11.83m11.83 0h11.8m11.84 0h11.83m11.83 0h11.83m11.83 0h11.83m11.8 0h11.84m11.83 0h11.83m11.83 0h11.83m11.83 0h11.8m11.84 0h11.83m11.83 0h11.83m11.83 0h11.83m11.8 0h11.84m11.83 0h11.83m11.83 0h11.83m11.83 0h11.8m11.84 0h11.83m11.83 0h11.83m11.83 0h11.83m11.8 0h11.84m11.83 0H1267m11.83 0h11.83m11.83 0h11.8m11.84 0h11.83m11.83 0h11.83m11.83 0h11.83m11.8 0h11.84m11.83 0h11.83m11.83 0h11.83m11.83 0h5.9l3.03.82 2.15 2.15.82 3.03v5.85m0 11.7v11.7m0 11.7v11.7m0 11.7v11.7m0 11.7v11.7m0 11.7v11.7m0 11.7v11.7m0 11.7v11.7m0 11.7v11.7m0 11.7v11.7m0 11.7v11.7m0 11.7v11.7m0 11.7v11.7m0 11.7v11.7m0 11.7v11.7m0 11.7v11.7m0 11.7v11.7m0 11.7v11.7m0 11.7v11.7m0 11.7v11.7m0 11.7V864l-.82 3.03-2.15 2.15-3.03.82h-5.9m-11.84 0h-11.83m-11.83 0h-11.83m-11.83 0h-11.83m-11.8 0h-11.84m-11.83 0h-11.83m-11.83 0h-11.83m-11.83 0h-11.8m-11.84 0h-11.83m-11.83 0h-11.83m-11.83 0h-11.83m-11.8 0h-11.84m-11.83 0h-11.83m-11.83 0h-11.83m-11.83 0h-11.8m-11.84 0h-11.83m-11.83 0h-11.83m-11.83 0h-11.83m-11.8 0h-11.84m-11.83 0h-11.83m-11.83 0h-11.83m-11.83 0h-11.8m-11.84 0h-11.83m-11.83 0h-11.83m-11.83 0H900.3m-11.8 0h-11.84m-11.83 0H853m-11.83 0h-11.83m-11.83 0h-11.8m-11.84 0h-11.83m-11.83 0h-11.83m-11.83 0H734.7m-11.8 0h-11.84m-11.83 0H687.4m-11.83 0h-11.83m-11.83 0H646l-3.03-.82-2.15-2.15L640 864v-5.85m0-11.7v-11.7m0-11.7v-11.7m0-11.7v-11.7m0-11.7v-11.7m0-11.7v-11.7m0-11.7v-11.7m0-11.7v-11.7m0-11.7v-11.7m0-11.7v-11.7m0-11.7v-11.7m0-11.7v-11.7m0-11.7v-11.7m0-11.7v-11.7m0-11.7v-11.7m0-11.7v-11.7m0-11.7v-11.7m0-11.7v-11.7m0-11.7v-11.7m0-11.7v-11.7m0-11.7V396l.82-3.03 2.15-2.15L646 390h5.9" stroke="#5e5e5e" stroke-width="3" fill="none"/><path d="M680 726c0-3.3 2.7-6 6-6h148c3.3 0 6 2.7 6 6v108c0 3.3-2.7 6-6 6H686c-3.3 0-6-2.7-6-6z" stroke="#5e5e5e" stroke-width="3" fill="#fff"/><use xlink:href="#a" transform="matrix(1,0,0,1,692,732) translate(17.6604938271605 38.77777777777778)"/><use xlink:href="#b" transform="matrix(1,0,0,1,692,732) translate(82.53703703703704 38.77777777777778)"/><use xlink:href="#c" transform="matrix(1,0,0,1,692,732) translate(36.580246913580254 65.44444444444446)"/><path d="M680 426c0-3.3 2.7-6 6-6h148c3.3 0 6 2.7 6 6v108c0 3.3-2.7 6-6 6H686c-3.3 0-6-2.7-6-6z" stroke="#5e5e5e" stroke-width="3" fill="#fff"/><use xlink:href="#d" transform="matrix(1,0,0,1,692,432) translate(3.2777777777777715 53.77777777777778)"/><use xlink:href="#e" transform="matrix(1,0,0,1,692,432) translate(57.4753086419753 53.77777777777778)"/><path d="M680 576c0-3.3 2.7-6 6-6h148c3.3 0 6 2.7 6 6v108c0 3.3-2.7 6-6 6H686c-3.3 0-6-2.7-6-6z" stroke="#5e5e5e" stroke-width="3" fill="#fff"/><use xlink:href="#f" transform="matrix(1,0,0,1,692,582) translate(1.4567901234567984 38.77777777777778)"/><use xlink:href="#g" transform="matrix(1,0,0,1,692,582) translate(60.65432098765434 38.77777777777778)"/><use xlink:href="#h" transform="matrix(1,0,0,1,692,582) translate(74.17283950617285 38.77777777777778)"/><use xlink:href="#i" transform="matrix(1,0,0,1,692,582) translate(127.19753086419753 38.77777777777778)"/><use xlink:href="#j" transform="matrix(1,0,0,1,692,582) translate(44.82098765432099 65.44444444444446)"/><path d="M720 1046c0-3.3 2.7-6 6-6h148c3.3 0 6 2.7 6 6v108c0 3.3-2.7 6-6 6H726c-3.3 0-6-2.7-6-6z" stroke="#5e5e5e" stroke-width="3" fill="#fff"/><use xlink:href="#k" transform="matrix(1,0,0,1,732,1052) translate(22.413580246913583 53.77777777777778)"/><use xlink:href="#l" transform="matrix(1,0,0,1,732,1052) translate(91.42592592592592 53.77777777777778)"/><path d="M800 1037.5V946c0-3.3-2.7-6-6-6h-28c-3.3 0-6-2.7-6-6v-74" stroke="#5e5e5e" stroke-width="2" fill="none"/><path d="M801 1038.5h-2v-1.03h2z" fill="#5e5e5e"/><path d="M760 844.74l4.64 14.26h-9.28z" stroke="#5e5e5e" stroke-width="2" fill="#5e5e5e"/><path d="M1240 786c0-3.3 2.7-6 6-6h228c3.3 0 6 2.7 6 6v48c0 3.3-2.7 6-6 6h-228c-3.3 0-6-2.7-6-6z" stroke="#000" stroke-opacity="0" stroke-width="3" fill="#fff" fill-opacity="0"/><use xlink:href="#m" transform="matrix(1,0,0,1,1245,785) translate(71.79012345679013 30.27777777777778)"/><path d="M900 426c0-3.3 2.7-6 6-6h148c3.3 0 6 2.7 6 6v108c0 3.3-2.7 6-6 6H906c-3.3 0-6-2.7-6-6z" stroke="#5e5e5e" stroke-width="3" fill="#fff"/><use xlink:href="#n" transform="matrix(1,0,0,1,912,432) translate(29.172839506172842 38.77777777777778)"/><use xlink:href="#e" transform="matrix(1,0,0,1,912,432) translate(30.376543209876537 65.44444444444446)"/><path d="M1080 426c0-3.3 2.7-6 6-6h148c3.3 0 6 2.7 6 6v108c0 3.3-2.7 6-6 6h-148c-3.3 0-6-2.7-6-6z" stroke="#5e5e5e" stroke-width="3" fill="#fff"/><use xlink:href="#o" transform="matrix(1,0,0,1,1092,432) translate(47.660493827160494 38.77777777777778)"/><use xlink:href="#p" transform="matrix(1,0,0,1,1092,432) translate(20.006172839506164 65.44444444444446)"/><path d="M1260 426c0-3.3 2.7-6 6-6h148c3.3 0 6 2.7 6 6v108c0 3.3-2.7 6-6 6h-148c-3.3 0-6-2.7-6-6z" stroke="#5e5e5e" stroke-width="3" fill="#fff"/><use xlink:href="#q" transform="matrix(1,0,0,1,1272,432) translate(44.60493827160494 38.77777777777778)"/><use xlink:href="#p" transform="matrix(1,0,0,1,1272,432) translate(20.006172839506164 65.44444444444446)"/><path d="M1220 288c0 6.63-26.86 12-60 12s-60-5.37-60-12v-96c0-6.63 26.86-12 60-12s60 5.37 60 12z" stroke="#5e5e5e" stroke-width="3" fill="#fff"/><path d="M1220 192c0 6.63-26.86 12-60 12s-60-5.37-60-12" stroke="#5e5e5e" stroke-width="3" fill="none"/><use xlink:href="#r" transform="matrix(1,0,0,1,1105,209) translate(16.172839506172835 47.34027777777778)"/><use xlink:href="#s" transform="matrix(1,0,0,1,1105,209) translate(53.148148148148145 47.34027777777778)"/><path d="M1400 288c0 6.63-26.86 12-60 12s-60-5.37-60-12v-96c0-6.63 26.86-12 60-12s60 5.37 60 12z" stroke="#5e5e5e" stroke-width="3" fill="#fff"/><path d="M1400 192c0 6.63-26.86 12-60 12s-60-5.37-60-12" stroke="#5e5e5e" stroke-width="3" fill="none"/><use xlink:href="#t" transform="matrix(1,0,0,1,1285,209) translate(13.117283950617285 47.34027777777778)"/><use xlink:href="#u" transform="matrix(1,0,0,1,1285,209) translate(50.092592592592595 47.34027777777778)"/><path d="M1160 417.5V320" stroke="#5e5e5e" stroke-width="2" fill="none"/><path d="M1161 418.5h-2v-1.03h2z" fill="#5e5e5e"/><path d="M1160 304.74l4.64 14.26h-9.28z" stroke="#5e5e5e" stroke-width="2" fill="#5e5e5e"/><path d="M1340 417.5V320" stroke="#5e5e5e" stroke-width="2" fill="none"/><path d="M1341 418.5h-2v-1.03h2z" fill="#5e5e5e"/><path d="M1340 304.74l4.64 14.26h-9.28z" stroke="#5e5e5e" stroke-width="2" fill="#5e5e5e"/><path d="M680 186c0-3.3 2.7-6 6-6h148c3.3 0 6 2.7 6 6v108c0 3.3-2.7 6-6 6H686c-3.3 0-6-2.7-6-6z" stroke="#5e5e5e" stroke-width="3" fill="#fff"/><use xlink:href="#v" transform="matrix(1,0,0,1,692,192) translate(5.098765432098759 38.77777777777778)"/><use xlink:href="#w" transform="matrix(1,0,0,1,692,192) translate(35.96296296296297 65.44444444444446)"/><path d="M900 186c0-3.3 2.7-6 6-6h148c3.3 0 6 2.7 6 6v108c0 3.3-2.7 6-6 6H906c-3.3 0-6-2.7-6-6z" stroke="#5e5e5e" stroke-width="3" fill="#fff"/><use xlink:href="#x" transform="matrix(1,0,0,1,912,192) translate(2.6296296296296333 53.77777777777778)"/><use xlink:href="#y" transform="matrix(1,0,0,1,912,192) translate(97.5679012345679 53.77777777777778)"/><path d="M760 417.5V320" stroke="#5e5e5e" stroke-width="2" fill="none"/><path d="M761 418.5h-2v-1.03h2z" fill="#5e5e5e"/><path d="M760 304.74l4.64 14.26h-9.28z" stroke="#5e5e5e" stroke-width="2" fill="#5e5e5e"/><path d="M980 417.5V320" stroke="#5e5e5e" stroke-width="2" fill="none"/><path d="M981 418.5h-2v-1.03h2z" fill="#5e5e5e"/><path d="M980 304.74l4.64 14.26h-9.28z" stroke="#5e5e5e" stroke-width="2" fill="#5e5e5e"/><path d="M842.5 480H880" stroke="#5e5e5e" stroke-width="2" fill="none"/><path d="M842.53 481h-1.03v-2h1.03z" fill="#5e5e5e"/><path d="M895.26 480L881 484.64v-9.28z" stroke="#5e5e5e" stroke-width="2" fill="#5e5e5e"/><path d="M2230 86c0-3.3 2.7-6 6-6h508c3.3 0 6 2.7 6 6v348c0 3.3-2.7 6-6 6h-508c-3.3 0-6-2.7-6-6z" stroke="#5e5e5e" stroke-width="4" fill="#fff"/><use xlink:href="#z" transform="matrix(1,0,0,1,2242,92) translate(114.81481481481487 96.69444444444443)"/><use xlink:href="#A" transform="matrix(1,0,0,1,2242,92) translate(235.01234567901236 96.69444444444443)"/><use xlink:href="#B" transform="matrix(1,0,0,1,2242,92) translate(248 128.69444444444443)"/><use xlink:href="#C" transform="matrix(1,0,0,1,2242,92) translate(160.66666666666669 158.91666666666666)"/><use xlink:href="#D" transform="matrix(1,0,0,1,2242,92) translate(327.9259259259259 158.91666666666666)"/><use xlink:href="#E" transform="matrix(1,0,0,1,2242,92) translate(248 187.3611111111111)"/><use xlink:href="#F" transform="matrix(1,0,0,1,2242,92) translate(6.657407407407362 219.3611111111111)"/><use xlink:href="#G" transform="matrix(1,0,0,1,2242,92) translate(61.22530864197526 219.3611111111111)"/><use xlink:href="#H" transform="matrix(1,0,0,1,2242,92) translate(171.80555555555551 219.3611111111111)"/><use xlink:href="#I" transform="matrix(1,0,0,1,2242,92) translate(236.00308641975303 219.3611111111111)"/><use xlink:href="#J" transform="matrix(1,0,0,1,2242,92) translate(292.17592592592587 219.3611111111111)"/><use xlink:href="#K" transform="matrix(1,0,0,1,2242,92) translate(380.3672839506173 219.3611111111111)"/><use xlink:href="#L" transform="matrix(1,0,0,1,2242,92) translate(430.0401234567902 219.3611111111111)"/><use xlink:href="#M" transform="matrix(1,0,0,1,2242,92) translate(172.68827160493828 254.02777777777774)"/><use xlink:href="#N" transform="matrix(1,0,0,1,2242,92) translate(204.78703703703704 254.02777777777774)"/><use xlink:href="#O" transform="matrix(1,0,0,1,2242,92) translate(294.5030864197531 254.02777777777774)"/><path d="M2980 86c0-3.3 2.7-6 6-6h508c3.3 0 6 2.7 6 6v348c0 3.3-2.7 6-6 6h-508c-3.3 0-6-2.7-6-6z" stroke="#5e5e5e" stroke-width="4" fill="#fff"/><g><use xlink:href="#z" transform="matrix(1,0,0,1,2992,92) translate(111.16049382716054 96.69444444444443)"/><use xlink:href="#P" transform="matrix(1,0,0,1,2992,92) translate(231.35802469135803 96.69444444444443)"/><use xlink:href="#B" transform="matrix(1,0,0,1,2992,92) translate(248 128.69444444444443)"/><use xlink:href="#Q" transform="matrix(1,0,0,1,2992,92) translate(122.85185185185183 158.91666666666666)"/><use xlink:href="#R" transform="matrix(1,0,0,1,2992,92) translate(276.85185185185185 158.91666666666666)"/><use xlink:href="#D" transform="matrix(1,0,0,1,2992,92) translate(365.74074074074076 158.91666666666666)"/><use xlink:href="#E" transform="matrix(1,0,0,1,2992,92) translate(248 187.3611111111111)"/><use xlink:href="#S" transform="matrix(1,0,0,1,2992,92) translate(18.65432098765433 219.3611111111111)"/><use xlink:href="#T" transform="matrix(1,0,0,1,2992,92) translate(124.41975308641976 219.3611111111111)"/><use xlink:href="#U" transform="matrix(1,0,0,1,2992,92) translate(148.49382716049382 219.3611111111111)"/><use xlink:href="#M" transform="matrix(1,0,0,1,2992,92) translate(292.858024691358 219.3611111111111)"/><use xlink:href="#V" transform="matrix(1,0,0,1,2992,92) translate(324.9567901234568 219.3611111111111)"/><use xlink:href="#W" transform="matrix(1,0,0,1,2992,92) translate(437.22222222222223 219.3611111111111)"/><use xlink:href="#X" transform="matrix(1,0,0,1,2992,92) translate(156.63888888888889 254.02777777777774)"/><use xlink:href="#Y" transform="matrix(1,0,0,1,2992,92) translate(239.93518518518516 254.02777777777774)"/></g><path d="M2227 260h-8.83m-8.84 0h-17.66m-8.84 0h-17.66m-8.84 0h-17.66m-8.84 0H2121l-3.03.82-2.15 2.15-.82 3.03v9.87m0 9.86v19.74m0 9.86v19.74m0 9.86v19.74m0 9.86v19.74m0 9.86V414l-.82 3.03-2.15 2.15-3.03.82h-9.83m-9.84 0h-19.66m-9.84 0h-19.66m-9.83 0h-9.84" stroke="#5e5e5e" stroke-width="2" fill="none"/><path d="M2228 261h-1.03v-2h1.03z" fill="#5e5e5e"/><path d="M2005.24 420l14.26-4.64v9.28z" stroke="#5e5e5e" stroke-width="2" fill="#5e5e5e"/><path d="M2762.83 261H2753v-2h9.83zm29.5 0h-19.66v-2h19.66zm29.5 0h-19.66v-2h19.66zm118 0h-19.66v-2h19.66zm19.67 0h-9.84v-2h9.84zm-49.17 0h-4.42v-2h4.43z" fill="#5e5e5e"/><path d="M2753.03 261H2752v-2h1.03zM2974.76 260l-14.26 4.64v-9.28z" fill="#5e5e5e"/><path d="M2978 260l-18.5 6v-12zm-16.5 3.26l10.03-3.26-10.03-3.26z" fill="#5e5e5e"/><g><use xlink:href="#Z" transform="matrix(1,0,0,1,2824.0864197530864,249.33333333333334) translate(0.005000000000002558 14.222222222222223)"/><use xlink:href="#aa" transform="matrix(1,0,0,1,2824.0864197530864,249.33333333333334) translate(52.25191358024692 14.222222222222223)"/></g><path d="M2780 746c0-3.3 2.7-6 6-6h388c3.3 0 6 2.7 6 6v178c0 3.3-2.7 6-6 6h-388c-3.3 0-6-2.7-6-6z" stroke="#5e5e5e" stroke-width="4" fill="#fff"/><g><use xlink:href="#ab" transform="matrix(1,0,0,1,2792,752) translate(147.60493827160496 90.69444444444443)"/></g><path d="M2490 443v9.4m0 9.4v18.8m0 9.4v18.8m0 9.4V537m0 9.4v18.8m0 9.4v9.4l.82 3.03 2.15 2.15 3.03.82h9.9m9.9 0h19.78m9.9 0h19.78m9.9 0h19.78m9.9 0h19.78m9.9 0h19.78m9.9 0h19.8m9.88 0h19.8m9.88 0h19.8m9.88 0h19.8m9.9 0h19.77m9.9 0h19.8m9.9 0h19.78m9.9 0h19.78m9.9 0h19.78m9.9 0h19.78m9.9 0h9.9l3.02.82 2.15 2.15.8 3.03v10.3m0 10.28v20.6m0 10.28v20.58m0 10.3v20.58m0 10.3v10.28" stroke="#5e5e5e" stroke-width="2" fill="none"/><path d="M2491 443.03h-2V442h2z" fill="#5e5e5e"/><path d="M2976.9 734.76l-4.62-14.26h9.27z" stroke="#5e5e5e" stroke-width="2" fill="#5e5e5e"/><path d="M1700 306c0-3.3 2.7-6 6-6h288c3.3 0 6 2.7 6 6v228c0 3.3-2.7 6-6 6h-288c-3.3 0-6-2.7-6-6z" stroke="#5e5e5e" stroke-width="4" fill="#fff"/><g><use xlink:href="#ac" transform="matrix(1,0,0,1,1712,312) translate(98.54320987654323 116.60069444444443)"/></g><path d="M1700 666c0-3.3 2.7-6 6-6h288c3.3 0 6 2.7 6 6v228c0 3.3-2.7 6-6 6h-288c-3.3 0-6-2.7-6-6z" stroke="#5e5e5e" stroke-width="4" fill="#fff"/><g><use xlink:href="#ad" transform="matrix(1,0,0,1,1712,672) translate(101.55555555555557 116.60069444444443)"/></g><path d="M2227 260h-8.83m-8.84 0h-17.66m-8.84 0h-17.66m-8.84 0h-17.66m-8.84 0H2121l-3.03.82-2.15 2.15-.82 3.03v9.96m0 9.96v19.92m0 9.96v19.93m0 9.96v19.9m0 9.97v19.92m0 9.95v19.92m0 9.96v19.92m0 9.97v19.92m0 9.96v19.92m0 9.96v19.92m0 9.96v19.92m0 9.97v19.92m0 9.96v19.92m0 9.96v19.93m0 9.96v19.9m0 9.97v19.93m0 9.96v19.92m0 9.96V774l-.82 3.03-2.15 2.15-3.03.82h-9.83m-9.84 0h-19.66m-9.84 0h-19.66m-9.83 0h-9.84" stroke="#5e5e5e" stroke-width="2" fill="none"/><path d="M2228 261h-1.03v-2h1.03z" fill="#5e5e5e"/><path d="M2005.24 780l14.26-4.64v9.28z" stroke="#5e5e5e" stroke-width="2" fill="#5e5e5e"/><defs><path fill="#333" d="M233-177c-1 41-23 64-60 70L243 0h-38l-65-103H63V0H30v-248c88 3 205-21 203 71zM63-129c60-2 137 13 137-47 0-61-80-42-137-45v92" id="ae"/><path fill="#333" d="M30 0v-248h187v28H63v79h144v27H63v87h162V0H30" id="af"/><path fill="#333" d="M185-189c-5-48-123-54-124 2 14 75 158 14 163 119 3 78-121 87-175 55-17-10-28-26-33-46l33-7c5 56 141 63 141-1 0-78-155-14-162-118-5-82 145-84 179-34 5 7 8 16 11 25" id="ag"/><path fill="#333" d="M127-220V0H93v-220H8v-28h204v28h-85" id="ah"/><g id="a"><use transform="matrix(0.06172839506172839,0,0,0.06172839506172839,0,0)" xlink:href="#ae"/><use transform="matrix(0.06172839506172839,0,0,0.06172839506172839,15.987654320987653,0)" xlink:href="#af"/><use transform="matrix(0.06172839506172839,0,0,0.06172839506172839,30.80246913580247,0)" xlink:href="#ag"/><use transform="matrix(0.06172839506172839,0,0,0.06172839506172839,45.61728395061728,0)" xlink:href="#ah"/></g><path fill="#333" d="M205 0l-28-72H64L36 0H1l101-248h38L239 0h-34zm-38-99l-47-123c-12 45-31 82-46 123h93" id="ai"/><path fill="#333" d="M30-248c87 1 191-15 191 75 0 78-77 80-158 76V0H30v-248zm33 125c57 0 124 11 124-50 0-59-68-47-124-48v98" id="aj"/><path fill="#333" d="M33 0v-248h34V0H33" id="ak"/><g id="b"><use transform="matrix(0.06172839506172839,0,0,0.06172839506172839,0,0)" xlink:href="#ai"/><use transform="matrix(0.06172839506172839,0,0,0.06172839506172839,14.814814814814813,0)" xlink:href="#aj"/><use transform="matrix(0.06172839506172839,0,0,0.06172839506172839,29.629629629629626,0)" xlink:href="#ak"/></g><path fill="#333" d="M85-194c31 0 48 13 60 33l-1-100h32l1 261h-30c-2-10 0-23-3-31C134-8 116 4 85 4 32 4 16-35 15-94c0-66 23-100 70-100zm9 24c-40 0-46 34-46 75 0 40 6 74 45 74 42 0 51-32 51-76 0-42-9-74-50-73" id="al"/><path fill="#333" d="M210-169c-67 3-38 105-44 169h-31v-121c0-29-5-50-35-48C34-165 62-65 56 0H25l-1-190h30c1 10-1 24 2 32 10-44 99-50 107 0 11-21 27-35 58-36 85-2 47 119 55 194h-31v-121c0-29-5-49-35-48" id="am"/><path fill="#333" d="M24-231v-30h32v30H24zM24 0v-190h32V0H24" id="an"/><path fill="#333" d="M117-194c89-4 53 116 60 194h-32v-121c0-31-8-49-39-48C34-167 62-67 57 0H25l-1-190h30c1 10-1 24 2 32 11-22 29-35 61-36" id="ao"/><g id="c"><use transform="matrix(0.06172839506172839,0,0,0.06172839506172839,0,0)" xlink:href="#ai"/><use transform="matrix(0.06172839506172839,0,0,0.06172839506172839,14.814814814814813,0)" xlink:href="#al"/><use transform="matrix(0.06172839506172839,0,0,0.06172839506172839,27.160493827160494,0)" xlink:href="#am"/><use transform="matrix(0.06172839506172839,0,0,0.06172839506172839,45.61728395061728,0)" xlink:href="#an"/><use transform="matrix(0.06172839506172839,0,0,0.06172839506172839,50.49382716049382,0)" xlink:href="#ao"/></g><path fill="#333" d="M212-179c-10-28-35-45-73-45-59 0-87 40-87 99 0 60 29 101 89 101 43 0 62-24 78-52l27 14C228-24 195 4 139 4 59 4 22-46 18-125c-6-104 99-153 187-111 19 9 31 26 39 46" id="ap"/><path fill="#333" d="M100-194c62-1 85 37 85 99 1 63-27 99-86 99S16-35 15-95c0-66 28-99 85-99zM99-20c44 1 53-31 53-75 0-43-8-75-51-75s-53 32-53 75 10 74 51 75" id="aq"/><path fill="#333" d="M114-163C36-179 61-72 57 0H25l-1-190h30c1 12-1 29 2 39 6-27 23-49 58-41v29" id="ar"/><path fill="#333" d="M100-194c63 0 86 42 84 106H49c0 40 14 67 53 68 26 1 43-12 49-29l28 8c-11 28-37 45-77 45C44 4 14-33 15-96c1-61 26-98 85-98zm52 81c6-60-76-77-97-28-3 7-6 17-6 28h103" id="as"/><g id="d"><use transform="matrix(0.06172839506172839,0,0,0.06172839506172839,0,0)" xlink:href="#ap"/><use transform="matrix(0.06172839506172839,0,0,0.06172839506172839,15.987654320987653,0)" xlink:href="#aq"/><use transform="matrix(0.06172839506172839,0,0,0.06172839506172839,28.333333333333332,0)" xlink:href="#ar"/><use transform="matrix(0.06172839506172839,0,0,0.06172839506172839,35.67901234567901,0)" xlink:href="#as"/></g><path fill="#333" d="M141-36C126-15 110 5 73 4 37 3 15-17 15-53c-1-64 63-63 125-63 3-35-9-54-41-54-24 1-41 7-42 31l-33-3c5-37 33-52 76-52 45 0 72 20 72 64v82c-1 20 7 32 28 27v20c-31 9-61-2-59-35zM48-53c0 20 12 33 32 33 41-3 63-29 60-74-43 2-92-5-92 41" id="at"/><path fill="#333" d="M115-194c55 1 70 41 70 98S169 2 115 4C84 4 66-9 55-30l1 105H24l-1-265h31l2 30c10-21 28-34 59-34zm-8 174c40 0 45-34 45-75s-6-73-45-74c-42 0-51 32-51 76 0 43 10 73 51 73" id="au"/><path fill="#333" d="M59-47c-2 24 18 29 38 22v24C64 9 27 4 27-40v-127H5v-23h24l9-43h21v43h35v23H59v120" id="av"/><g id="e"><use transform="matrix(0.06172839506172839,0,0,0.06172839506172839,0,0)" xlink:href="#at"/><use transform="matrix(0.06172839506172839,0,0,0.06172839506172839,12.345679012345679,0)" xlink:href="#al"/><use transform="matrix(0.06172839506172839,0,0,0.06172839506172839,24.691358024691358,0)" xlink:href="#at"/><use transform="matrix(0.06172839506172839,0,0,0.06172839506172839,37.03703703703704,0)" xlink:href="#au"/><use transform="matrix(0.06172839506172839,0,0,0.06172839506172839,49.382716049382715,0)" xlink:href="#av"/><use transform="matrix(0.06172839506172839,0,0,0.06172839506172839,55.55555555555556,0)" xlink:href="#as"/><use transform="matrix(0.06172839506172839,0,0,0.06172839506172839,67.90123456790124,0)" xlink:href="#ar"/></g><path fill="#333" d="M30 0v-248h33v221h125V0H30" id="aw"/><path fill="#333" d="M177-190C167-65 218 103 67 71c-23-6-38-20-44-43l32-5c15 47 100 32 89-28v-30C133-14 115 1 83 1 29 1 15-40 15-95c0-56 16-97 71-98 29-1 48 16 59 35 1-10 0-23 2-32h30zM94-22c36 0 50-32 50-73 0-42-14-75-50-75-39 0-46 34-46 75s6 73 46 73" id="ax"/><path fill="#333" d="M96-169c-40 0-48 33-48 73s9 75 48 75c24 0 41-14 43-38l32 2c-6 37-31 61-74 61-59 0-76-41-82-99-10-93 101-131 147-64 4 7 5 14 7 22l-32 3c-4-21-16-35-41-35" id="ay"/><g id="f"><use transform="matrix(0.06172839506172839,0,0,0.06172839506172839,0,0)" xlink:href="#aw"/><use transform="matrix(0.06172839506172839,0,0,0.06172839506172839,12.345679012345679,0)" xlink:href="#aq"/><use transform="matrix(0.06172839506172839,0,0,0.06172839506172839,24.691358024691358,0)" xlink:href="#ax"/><use transform="matrix(0.06172839506172839,0,0,0.06172839506172839,37.03703703703704,0)" xlink:href="#an"/><use transform="matrix(0.06172839506172839,0,0,0.06172839506172839,41.91358024691358,0)" xlink:href="#ay"/></g><path fill="#333" d="M16-82v-28h88v28H16" id="az"/><use transform="matrix(0.06172839506172839,0,0,0.06172839506172839,0,0)" xlink:href="#az" id="g"/><path fill="#333" d="M30-248c118-7 216 8 213 122C240-48 200 0 122 0H30v-248zM63-27c89 8 146-16 146-99s-60-101-146-95v194" id="aA"/><g id="h"><use transform="matrix(0.06172839506172839,0,0,0.06172839506172839,0,0)" xlink:href="#aA"/><use transform="matrix(0.06172839506172839,0,0,0.06172839506172839,15.987654320987653,0)" xlink:href="#at"/><use transform="matrix(0.06172839506172839,0,0,0.06172839506172839,28.333333333333332,0)" xlink:href="#av"/><use transform="matrix(0.06172839506172839,0,0,0.06172839506172839,34.50617283950617,0)" xlink:href="#at"/></g><use transform="matrix(0.06172839506172839,0,0,0.06172839506172839,0,0)" xlink:href="#az" id="i"/><path fill="#333" d="M140-251c81 0 123 46 123 126C263-46 219 4 140 4 59 4 17-45 17-125s42-126 123-126zm0 227c63 0 89-41 89-101s-29-99-89-99c-61 0-89 39-89 99S79-25 140-24" id="aB"/><g id="j"><use transform="matrix(0.06172839506172839,0,0,0.06172839506172839,0,0)" xlink:href="#aA"/><use transform="matrix(0.06172839506172839,0,0,0.06172839506172839,15.987654320987653,0)" xlink:href="#ah"/><use transform="matrix(0.06172839506172839,0,0,0.06172839506172839,29.074074074074073,0)" xlink:href="#aB"/></g><g id="k"><use transform="matrix(0.06172839506172839,0,0,0.06172839506172839,0,0)" xlink:href="#ai"/><use transform="matrix(0.06172839506172839,0,0,0.06172839506172839,14.814814814814813,0)" xlink:href="#al"/><use transform="matrix(0.06172839506172839,0,0,0.06172839506172839,27.160493827160494,0)" xlink:href="#am"/><use transform="matrix(0.06172839506172839,0,0,0.06172839506172839,45.61728395061728,0)" xlink:href="#an"/><use transform="matrix(0.06172839506172839,0,0,0.06172839506172839,50.49382716049382,0)" xlink:href="#ao"/></g><path fill="#333" d="M232-93c-1 65-40 97-104 97C67 4 28-28 28-90v-158h33c8 89-33 224 67 224 102 0 64-133 71-224h33v155" id="aC"/><g id="l"><use transform="matrix(0.06172839506172839,0,0,0.06172839506172839,0,0)" xlink:href="#aC"/><use transform="matrix(0.06172839506172839,0,0,0.06172839506172839,15.987654320987653,0)" xlink:href="#ak"/></g><path fill="#333" d="M160-131c35 5 61 23 61 61C221 17 115-2 30 0v-248c76 3 177-17 177 60 0 33-19 50-47 57zm-97-11c50-1 110 9 110-42 0-47-63-36-110-37v79zm0 115c55-2 124 14 124-45 0-56-70-42-124-44v89" id="aD"/><path fill="#333" d="M143 0L79-87 56-68V0H24v-261h32v163l83-92h37l-77 82L181 0h-38" id="aE"/><g id="m"><use transform="matrix(0.06172839506172839,0,0,0.06172839506172839,0,0)" xlink:href="#aD"/><use transform="matrix(0.06172839506172839,0,0,0.06172839506172839,14.814814814814813,0)" xlink:href="#at"/><use transform="matrix(0.06172839506172839,0,0,0.06172839506172839,27.160493827160494,0)" xlink:href="#ay"/><use transform="matrix(0.06172839506172839,0,0,0.06172839506172839,38.27160493827161,0)" xlink:href="#aE"/><use transform="matrix(0.06172839506172839,0,0,0.06172839506172839,49.38271604938272,0)" xlink:href="#as"/><use transform="matrix(0.06172839506172839,0,0,0.06172839506172839,61.7283950617284,0)" xlink:href="#ao"/><use transform="matrix(0.06172839506172839,0,0,0.06172839506172839,74.07407407407408,0)" xlink:href="#al"/></g><path fill="#333" d="M135-143c-3-34-86-38-87 0 15 53 115 12 119 90S17 21 10-45l28-5c4 36 97 45 98 0-10-56-113-15-118-90-4-57 82-63 122-42 12 7 21 19 24 35" id="aF"/><g id="n"><use transform="matrix(0.06172839506172839,0,0,0.06172839506172839,0,0)" xlink:href="#ag"/><use transform="matrix(0.06172839506172839,0,0,0.06172839506172839,14.814814814814813,0)" xlink:href="#av"/><use transform="matrix(0.06172839506172839,0,0,0.06172839506172839,20.98765432098765,0)" xlink:href="#at"/><use transform="matrix(0.06172839506172839,0,0,0.06172839506172839,33.33333333333333,0)" xlink:href="#av"/><use transform="matrix(0.06172839506172839,0,0,0.06172839506172839,39.50617283950617,0)" xlink:href="#an"/><use transform="matrix(0.06172839506172839,0,0,0.06172839506172839,44.382716049382715,0)" xlink:href="#aF"/><use transform="matrix(0.06172839506172839,0,0,0.06172839506172839,55.49382716049382,0)" xlink:href="#av"/><use transform="matrix(0.06172839506172839,0,0,0.06172839506172839,61.666666666666664,0)" xlink:href="#an"/><use transform="matrix(0.06172839506172839,0,0,0.06172839506172839,66.5432098765432,0)" xlink:href="#ay"/></g><g id="o"><use transform="matrix(0.06172839506172839,0,0,0.06172839506172839,0,0)" xlink:href="#aw"/><use transform="matrix(0.06172839506172839,0,0,0.06172839506172839,12.345679012345679,0)" xlink:href="#an"/><use transform="matrix(0.06172839506172839,0,0,0.06172839506172839,17.22222222222222,0)" xlink:href="#ao"/><use transform="matrix(0.06172839506172839,0,0,0.06172839506172839,29.5679012345679,0)" xlink:href="#aE"/></g><path fill="#333" d="M24 0v-261h32V0H24" id="aG"/><g id="p"><use transform="matrix(0.06172839506172839,0,0,0.06172839506172839,0,0)" xlink:href="#ap"/><use transform="matrix(0.06172839506172839,0,0,0.06172839506172839,15.987654320987653,0)" xlink:href="#aq"/><use transform="matrix(0.06172839506172839,0,0,0.06172839506172839,28.333333333333332,0)" xlink:href="#ao"/><use transform="matrix(0.06172839506172839,0,0,0.06172839506172839,40.67901234567901,0)" xlink:href="#av"/><use transform="matrix(0.06172839506172839,0,0,0.06172839506172839,46.851851851851855,0)" xlink:href="#ar"/><use transform="matrix(0.06172839506172839,0,0,0.06172839506172839,54.19753086419753,0)" xlink:href="#aq"/><use transform="matrix(0.06172839506172839,0,0,0.06172839506172839,66.54320987654322,0)" xlink:href="#aG"/><use transform="matrix(0.06172839506172839,0,0,0.06172839506172839,71.41975308641976,0)" xlink:href="#aG"/><use transform="matrix(0.06172839506172839,0,0,0.06172839506172839,76.2962962962963,0)" xlink:href="#as"/><use transform="matrix(0.06172839506172839,0,0,0.06172839506172839,88.64197530864199,0)" xlink:href="#ar"/></g><g id="q"><use transform="matrix(0.06172839506172839,0,0,0.06172839506172839,0,0)" xlink:href="#aC"/><use transform="matrix(0.06172839506172839,0,0,0.06172839506172839,15.987654320987653,0)" xlink:href="#aF"/><use transform="matrix(0.06172839506172839,0,0,0.06172839506172839,27.098765432098766,0)" xlink:href="#as"/><use transform="matrix(0.06172839506172839,0,0,0.06172839506172839,39.44444444444444,0)" xlink:href="#ar"/></g><g id="r"><use transform="matrix(0.06172839506172839,0,0,0.06172839506172839,0,0)" xlink:href="#aD"/><use transform="matrix(0.06172839506172839,0,0,0.06172839506172839,14.814814814814813,0)" xlink:href="#aA"/></g><g id="s"><use transform="matrix(0.06172839506172839,0,0,0.06172839506172839,0,0)" xlink:href="#aw"/><use transform="matrix(0.06172839506172839,0,0,0.06172839506172839,12.345679012345679,0)" xlink:href="#an"/><use transform="matrix(0.06172839506172839,0,0,0.06172839506172839,17.22222222222222,0)" xlink:href="#ao"/><use transform="matrix(0.06172839506172839,0,0,0.06172839506172839,29.5679012345679,0)" xlink:href="#aE"/></g><g id="t"><use transform="matrix(0.06172839506172839,0,0,0.06172839506172839,0,0)" xlink:href="#aD"/><use transform="matrix(0.06172839506172839,0,0,0.06172839506172839,14.814814814814813,0)" xlink:href="#aA"/></g><g id="u"><use transform="matrix(0.06172839506172839,0,0,0.06172839506172839,0,0)" xlink:href="#aC"/><use transform="matrix(0.06172839506172839,0,0,0.06172839506172839,15.987654320987653,0)" xlink:href="#aF"/><use transform="matrix(0.06172839506172839,0,0,0.06172839506172839,27.098765432098766,0)" xlink:href="#as"/><use transform="matrix(0.06172839506172839,0,0,0.06172839506172839,39.44444444444444,0)" xlink:href="#ar"/></g><path fill="#333" d="M206 0h-36l-40-164L89 0H53L-1-190h32L70-26l43-164h34l41 164 42-164h31" id="aH"/><path fill="#333" d="M179-190L93 31C79 59 56 82 12 73V49c39 6 53-20 64-50L1-190h34L92-34l54-156h33" id="aI"/><g id="v"><use transform="matrix(0.06172839506172839,0,0,0.06172839506172839,0,0)" xlink:href="#ai"/><use transform="matrix(0.06172839506172839,0,0,0.06172839506172839,14.814814814814813,0)" xlink:href="#aj"/><use transform="matrix(0.06172839506172839,0,0,0.06172839506172839,29.629629629629626,0)" xlink:href="#ak"/><use transform="matrix(0.06172839506172839,0,0,0.06172839506172839,35.80246913580247,0)" xlink:href="#az"/><use transform="matrix(0.06172839506172839,0,0,0.06172839506172839,43.148148148148145,0)" xlink:href="#ax"/><use transform="matrix(0.06172839506172839,0,0,0.06172839506172839,55.49382716049382,0)" xlink:href="#at"/><use transform="matrix(0.06172839506172839,0,0,0.06172839506172839,67.8395061728395,0)" xlink:href="#av"/><use transform="matrix(0.06172839506172839,0,0,0.06172839506172839,74.01234567901234,0)" xlink:href="#as"/><use transform="matrix(0.06172839506172839,0,0,0.06172839506172839,86.35802469135803,0)" xlink:href="#aH"/><use transform="matrix(0.06172839506172839,0,0,0.06172839506172839,102.34567901234568,0)" xlink:href="#at"/><use transform="matrix(0.06172839506172839,0,0,0.06172839506172839,114.69135802469137,0)" xlink:href="#aI"/></g><g id="w"><use transform="matrix(0.06172839506172839,0,0,0.06172839506172839,0,0)" xlink:href="#ap"/><use transform="matrix(0.06172839506172839,0,0,0.06172839506172839,15.987654320987653,0)" xlink:href="#aB"/><use transform="matrix(0.06172839506172839,0,0,0.06172839506172839,33.2716049382716,0)" xlink:href="#ae"/><use transform="matrix(0.06172839506172839,0,0,0.06172839506172839,49.25925925925925,0)" xlink:href="#af"/></g><g id="x"><use transform="matrix(0.06172839506172839,0,0,0.06172839506172839,0,0)" xlink:href="#ag"/><use transform="matrix(0.06172839506172839,0,0,0.06172839506172839,14.814814814814813,0)" xlink:href="#av"/><use transform="matrix(0.06172839506172839,0,0,0.06172839506172839,20.98765432098765,0)" xlink:href="#at"/><use transform="matrix(0.06172839506172839,0,0,0.06172839506172839,33.33333333333333,0)" xlink:href="#av"/><use transform="matrix(0.06172839506172839,0,0,0.06172839506172839,39.50617283950617,0)" xlink:href="#an"/><use transform="matrix(0.06172839506172839,0,0,0.06172839506172839,44.382716049382715,0)" xlink:href="#aF"/><use transform="matrix(0.06172839506172839,0,0,0.06172839506172839,55.49382716049382,0)" xlink:href="#av"/><use transform="matrix(0.06172839506172839,0,0,0.06172839506172839,61.666666666666664,0)" xlink:href="#an"/><use transform="matrix(0.06172839506172839,0,0,0.06172839506172839,66.5432098765432,0)" xlink:href="#ay"/><use transform="matrix(0.06172839506172839,0,0,0.06172839506172839,77.65432098765432,0)" xlink:href="#aF"/></g><g id="y"><use transform="matrix(0.06172839506172839,0,0,0.06172839506172839,0,0)" xlink:href="#ai"/><use transform="matrix(0.06172839506172839,0,0,0.06172839506172839,14.814814814814813,0)" xlink:href="#aj"/><use transform="matrix(0.06172839506172839,0,0,0.06172839506172839,29.629629629629626,0)" xlink:href="#ak"/></g><path fill="#333" d="M199 0l-22-63H83L61 0H9l90-248h61L250 0h-51zm-33-102l-36-108c-10 38-24 72-36 108h72" id="aJ"/><path fill="#333" d="M88-194c31-1 46 15 58 34l-1-101h50l1 261h-48c-2-10 0-23-3-31C134-8 116 4 84 4 32 4 16-41 15-95c0-56 19-97 73-99zm17 164c33 0 40-30 41-66 1-37-9-64-41-64s-38 30-39 65c0 43 13 65 39 65" id="aK"/><path fill="#333" d="M220-157c-53 9-28 100-34 157h-49v-107c1-27-5-49-29-50C55-147 81-57 75 0H25l-1-190h47c2 12-1 28 3 38 10-53 101-56 108 0 13-22 24-43 59-42 82 1 51 116 57 194h-49v-107c-1-25-5-48-29-50" id="aL"/><path fill="#333" d="M25-224v-37h50v37H25zM25 0v-190h50V0H25" id="aM"/><path fill="#333" d="M135-194c87-1 58 113 63 194h-50c-7-57 23-157-34-157-59 0-34 97-39 157H25l-1-190h47c2 12-1 28 3 38 12-26 28-41 61-42" id="aN"/><g id="z"><use transform="matrix(0.0987654320987654,0,0,0.0987654320987654,0,0)" xlink:href="#aJ"/><use transform="matrix(0.0987654320987654,0,0,0.0987654320987654,25.58024691358024,0)" xlink:href="#aK"/><use transform="matrix(0.0987654320987654,0,0,0.0987654320987654,47.20987654320986,0)" xlink:href="#aL"/><use transform="matrix(0.0987654320987654,0,0,0.0987654320987654,78.81481481481478,0)" xlink:href="#aM"/><use transform="matrix(0.0987654320987654,0,0,0.0987654320987654,88.69135802469133,0)" xlink:href="#aN"/></g><path fill="#333" d="M169-182c-1-43-94-46-97-3 18 66 151 10 154 114 3 95-165 93-204 36-6-8-10-19-12-30l50-8c3 46 112 56 116 5-17-69-150-10-154-114-4-87 153-88 188-35 5 8 8 18 10 28" id="aO"/><path fill="#333" d="M185-48c-13 30-37 53-82 52C43 2 14-33 14-96s30-98 90-98c62 0 83 45 84 108H66c0 31 8 55 39 56 18 0 30-7 34-22zm-45-69c5-46-57-63-70-21-2 6-4 13-4 21h74" id="aP"/><path fill="#333" d="M135-150c-39-12-60 13-60 57V0H25l-1-190h47c2 13-1 29 3 40 6-28 27-53 61-41v41" id="aQ"/><path fill="#333" d="M128 0H69L1-190h53L99-40l48-150h52" id="aR"/><path fill="#333" d="M190-63c-7 42-38 67-86 67-59 0-84-38-90-98-12-110 154-137 174-36l-49 2c-2-19-15-32-35-32-30 0-35 28-38 64-6 74 65 87 74 30" id="aS"/><path fill="#333" d="M137-138c1-29-70-34-71-4 15 46 118 7 119 86 1 83-164 76-172 9l43-7c4 19 20 25 44 25 33 8 57-30 24-41C81-84 22-81 20-136c-2-80 154-74 161-7" id="aT"/><g id="A"><use transform="matrix(0.0987654320987654,0,0,0.0987654320987654,0,0)" xlink:href="#aO"/><use transform="matrix(0.0987654320987654,0,0,0.0987654320987654,23.703703703703695,0)" xlink:href="#aP"/><use transform="matrix(0.0987654320987654,0,0,0.0987654320987654,43.45679012345677,0)" xlink:href="#aQ"/><use transform="matrix(0.0987654320987654,0,0,0.0987654320987654,57.28395061728393,0)" xlink:href="#aR"/><use transform="matrix(0.0987654320987654,0,0,0.0987654320987654,77.03703703703701,0)" xlink:href="#aM"/><use transform="matrix(0.0987654320987654,0,0,0.0987654320987654,86.91358024691355,0)" xlink:href="#aS"/><use transform="matrix(0.0987654320987654,0,0,0.0987654320987654,106.66666666666663,0)" xlink:href="#aP"/><use transform="matrix(0.0987654320987654,0,0,0.0987654320987654,126.41975308641972,0)" xlink:href="#aT"/></g><path fill="#333" d="M26 75v-336h71v23H56V52h41v23H26" id="aU"/><path fill="#333" d="M33-154v-36h34v36H33zM33 0v-36h34V0H33" id="aV"/><path fill="#333" d="M143 4C61 4 22-44 18-125c-5-107 100-154 193-111 17 8 29 25 37 43l-32 9c-13-25-37-40-76-40-61 0-88 39-88 99 0 61 29 100 91 101 35 0 62-11 79-27v-45h-74v-28h105v86C228-13 192 4 143 4" id="aW"/><g id="C"><use transform="matrix(0.07407407407407407,0,0,0.07407407407407407,0,0)" xlink:href="#aU"/><use transform="matrix(0.07407407407407407,0,0,0.07407407407407407,7.4074074074074066,0)" xlink:href="#ay"/><use transform="matrix(0.07407407407407407,0,0,0.07407407407407407,20.74074074074074,0)" xlink:href="#aq"/><use transform="matrix(0.07407407407407407,0,0,0.07407407407407407,35.55555555555556,0)" xlink:href="#ao"/><use transform="matrix(0.07407407407407407,0,0,0.07407407407407407,50.37037037037037,0)" xlink:href="#av"/><use transform="matrix(0.07407407407407407,0,0,0.07407407407407407,57.77777777777777,0)" xlink:href="#at"/><use transform="matrix(0.07407407407407407,0,0,0.07407407407407407,72.59259259259258,0)" xlink:href="#an"/><use transform="matrix(0.07407407407407407,0,0,0.07407407407407407,78.44444444444443,0)" xlink:href="#ao"/><use transform="matrix(0.07407407407407407,0,0,0.07407407407407407,93.25925925925924,0)" xlink:href="#as"/><use transform="matrix(0.07407407407407407,0,0,0.07407407407407407,108.07407407407405,0)" xlink:href="#ar"/><use transform="matrix(0.07407407407407407,0,0,0.07407407407407407,116.88888888888887,0)" xlink:href="#aV"/><use transform="matrix(0.07407407407407407,0,0,0.07407407407407407,124.29629629629626,0)" xlink:href="#aW"/><use transform="matrix(0.07407407407407407,0,0,0.07407407407407407,145.037037037037,0)" xlink:href="#aq"/></g><path fill="#333" d="M3 75V52h41v-290H3v-23h71V75H3" id="aX"/><use transform="matrix(0.07407407407407407,0,0,0.07407407407407407,0,0)" xlink:href="#aX" id="D"/><g id="F"><use transform="matrix(0.08024691358024691,0,0,0.08024691358024691,0,0)" xlink:href="#aW"/><use transform="matrix(0.08024691358024691,0,0,0.08024691358024691,22.469135802469136,0)" xlink:href="#as"/><use transform="matrix(0.08024691358024691,0,0,0.08024691358024691,38.51851851851852,0)" xlink:href="#av"/></g><path fill="#333" d="M141 0L90-78 38 0H4l68-98-65-92h35l48 74 47-74h35l-64 92 68 98h-35" id="aY"/><g id="G"><use transform="matrix(0.08024691358024691,0,0,0.08024691358024691,0,0)" xlink:href="#as"/><use transform="matrix(0.08024691358024691,0,0,0.08024691358024691,16.049382716049383,0)" xlink:href="#aY"/><use transform="matrix(0.08024691358024691,0,0,0.08024691358024691,30.493827160493826,0)" xlink:href="#av"/><use transform="matrix(0.08024691358024691,0,0,0.08024691358024691,38.51851851851852,0)" xlink:href="#as"/><use transform="matrix(0.08024691358024691,0,0,0.08024691358024691,54.5679012345679,0)" xlink:href="#ar"/><use transform="matrix(0.08024691358024691,0,0,0.08024691358024691,64.11728395061728,0)" xlink:href="#ao"/><use transform="matrix(0.08024691358024691,0,0,0.08024691358024691,80.16666666666666,0)" xlink:href="#at"/><use transform="matrix(0.08024691358024691,0,0,0.08024691358024691,96.21604938271605,0)" xlink:href="#aG"/></g><g id="H"><use transform="matrix(0.08024691358024691,0,0,0.08024691358024691,0,0)" xlink:href="#al"/><use transform="matrix(0.08024691358024691,0,0,0.08024691358024691,16.049382716049383,0)" xlink:href="#at"/><use transform="matrix(0.08024691358024691,0,0,0.08024691358024691,32.098765432098766,0)" xlink:href="#av"/><use transform="matrix(0.08024691358024691,0,0,0.08024691358024691,40.123456790123456,0)" xlink:href="#at"/></g><g id="I"><use transform="matrix(0.08024691358024691,0,0,0.08024691358024691,0,0)" xlink:href="#at"/><use transform="matrix(0.08024691358024691,0,0,0.08024691358024691,16.049382716049383,0)" xlink:href="#ao"/><use transform="matrix(0.08024691358024691,0,0,0.08024691358024691,32.098765432098766,0)" xlink:href="#al"/></g><g id="J"><use transform="matrix(0.08024691358024691,0,0,0.08024691358024691,0,0)" xlink:href="#ay"/><use transform="matrix(0.08024691358024691,0,0,0.08024691358024691,14.444444444444443,0)" xlink:href="#ar"/><use transform="matrix(0.08024691358024691,0,0,0.08024691358024691,23.993827160493826,0)" xlink:href="#as"/><use transform="matrix(0.08024691358024691,0,0,0.08024691358024691,40.04320987654321,0)" xlink:href="#at"/><use transform="matrix(0.08024691358024691,0,0,0.08024691358024691,56.092592592592595,0)" xlink:href="#av"/><use transform="matrix(0.08024691358024691,0,0,0.08024691358024691,64.11728395061729,0)" xlink:href="#as"/></g><g id="K"><use transform="matrix(0.08024691358024691,0,0,0.08024691358024691,0,0)" xlink:href="#ai"/><use transform="matrix(0.08024691358024691,0,0,0.08024691358024691,19.25925925925926,0)" xlink:href="#au"/><use transform="matrix(0.08024691358024691,0,0,0.08024691358024691,35.308641975308646,0)" xlink:href="#an"/></g><g id="L"><use transform="matrix(0.08024691358024691,0,0,0.08024691358024691,0,0)" xlink:href="#ae"/><use transform="matrix(0.08024691358024691,0,0,0.08024691358024691,20.78395061728395,0)" xlink:href="#as"/><use transform="matrix(0.08024691358024691,0,0,0.08024691358024691,36.83333333333333,0)" xlink:href="#aF"/><use transform="matrix(0.08024691358024691,0,0,0.08024691358024691,51.27777777777777,0)" xlink:href="#av"/></g><g id="M"><use transform="matrix(0.08024691358024691,0,0,0.08024691358024691,0,0)" xlink:href="#av"/><use transform="matrix(0.08024691358024691,0,0,0.08024691358024691,8.024691358024691,0)" xlink:href="#aq"/></g><g id="N"><use transform="matrix(0.08024691358024691,0,0,0.08024691358024691,0,0)" xlink:href="#ai"/><use transform="matrix(0.08024691358024691,0,0,0.08024691358024691,19.25925925925926,0)" xlink:href="#al"/><use transform="matrix(0.08024691358024691,0,0,0.08024691358024691,35.308641975308646,0)" xlink:href="#am"/><use transform="matrix(0.08024691358024691,0,0,0.08024691358024691,59.30246913580247,0)" xlink:href="#an"/><use transform="matrix(0.08024691358024691,0,0,0.08024691358024691,65.64197530864197,0)" xlink:href="#ao"/></g><g id="O"><use transform="matrix(0.08024691358024691,0,0,0.08024691358024691,0,0)" xlink:href="#aC"/><use transform="matrix(0.08024691358024691,0,0,0.08024691358024691,20.78395061728395,0)" xlink:href="#ak"/></g><path fill="#333" d="M76-208v77h127v40H76V0H24v-248h183v40H76" id="aZ"/><path fill="#333" d="M110-194c64 0 96 36 96 99 0 64-35 99-97 99-61 0-95-36-95-99 0-62 34-99 96-99zm-1 164c35 0 45-28 45-65 0-40-10-65-43-65-34 0-45 26-45 65 0 36 10 65 43 65" id="ba"/><path fill="#333" d="M115-3C79 11 28 4 28-45v-112H4v-33h27l15-45h31v45h36v33H77v99c-1 23 16 31 38 25v30" id="bb"/><g id="P"><use transform="matrix(0.0987654320987654,0,0,0.0987654320987654,0,0)" xlink:href="#aZ"/><use transform="matrix(0.0987654320987654,0,0,0.0987654320987654,21.629629629629623,0)" xlink:href="#aQ"/><use transform="matrix(0.0987654320987654,0,0,0.0987654320987654,35.45679012345678,0)" xlink:href="#ba"/><use transform="matrix(0.0987654320987654,0,0,0.0987654320987654,57.0864197530864,0)" xlink:href="#aN"/><use transform="matrix(0.0987654320987654,0,0,0.0987654320987654,78.71604938271602,0)" xlink:href="#bb"/><use transform="matrix(0.0987654320987654,0,0,0.0987654320987654,90.46913580246911,0)" xlink:href="#aP"/><use transform="matrix(0.0987654320987654,0,0,0.0987654320987654,110.22222222222219,0)" xlink:href="#aN"/><use transform="matrix(0.0987654320987654,0,0,0.0987654320987654,131.85185185185182,0)" xlink:href="#aK"/></g><g id="Q"><use transform="matrix(0.07407407407407407,0,0,0.07407407407407407,0,0)" xlink:href="#aU"/><use transform="matrix(0.07407407407407407,0,0,0.07407407407407407,7.4074074074074066,0)" xlink:href="#ay"/><use transform="matrix(0.07407407407407407,0,0,0.07407407407407407,20.74074074074074,0)" xlink:href="#aq"/><use transform="matrix(0.07407407407407407,0,0,0.07407407407407407,35.55555555555556,0)" xlink:href="#am"/><use transform="matrix(0.07407407407407407,0,0,0.07407407407407407,57.7037037037037,0)" xlink:href="#au"/><use transform="matrix(0.07407407407407407,0,0,0.07407407407407407,72.51851851851852,0)" xlink:href="#aq"/><use transform="matrix(0.07407407407407407,0,0,0.07407407407407407,87.33333333333333,0)" xlink:href="#ao"/><use transform="matrix(0.07407407407407407,0,0,0.07407407407407407,102.14814814814814,0)" xlink:href="#as"/><use transform="matrix(0.07407407407407407,0,0,0.07407407407407407,116.96296296296293,0)" xlink:href="#ao"/><use transform="matrix(0.07407407407407407,0,0,0.07407407407407407,131.77777777777777,0)" xlink:href="#av"/><use transform="matrix(0.07407407407407407,0,0,0.07407407407407407,139.1851851851852,0)" xlink:href="#aV"/></g><path fill="#333" d="M153-248C145-148 188 4 80 4 36 3 13-21 6-62l32-5c4 25 16 42 43 43 27 0 39-20 39-49v-147H72v-28h81" id="bc"/><g id="R"><use transform="matrix(0.07407407407407407,0,0,0.07407407407407407,0,0)" xlink:href="#ao"/><use transform="matrix(0.07407407407407407,0,0,0.07407407407407407,14.814814814814813,0)" xlink:href="#as"/><use transform="matrix(0.07407407407407407,0,0,0.07407407407407407,29.629629629629626,0)" xlink:href="#aY"/><use transform="matrix(0.07407407407407407,0,0,0.07407407407407407,42.96296296296296,0)" xlink:href="#av"/><use transform="matrix(0.07407407407407407,0,0,0.07407407407407407,50.37037037037037,0)" xlink:href="#bc"/><use transform="matrix(0.07407407407407407,0,0,0.07407407407407407,63.703703703703695,0)" xlink:href="#ag"/></g><path fill="#333" d="M108 0H70L1-190h34L89-25l56-165h34" id="bd"/><g id="S"><use transform="matrix(0.08024691358024691,0,0,0.08024691358024691,0,0)" xlink:href="#aj"/><use transform="matrix(0.08024691358024691,0,0,0.08024691358024691,19.25925925925926,0)" xlink:href="#ar"/><use transform="matrix(0.08024691358024691,0,0,0.08024691358024691,28.80864197530864,0)" xlink:href="#aq"/><use transform="matrix(0.08024691358024691,0,0,0.08024691358024691,44.858024691358025,0)" xlink:href="#bd"/><use transform="matrix(0.08024691358024691,0,0,0.08024691358024691,59.30246913580247,0)" xlink:href="#an"/><use transform="matrix(0.08024691358024691,0,0,0.08024691358024691,65.64197530864197,0)" xlink:href="#al"/><use transform="matrix(0.08024691358024691,0,0,0.08024691358024691,81.69135802469135,0)" xlink:href="#as"/></g><use transform="matrix(0.08024691358024691,0,0,0.08024691358024691,0,0)" xlink:href="#at" id="T"/><path fill="#333" d="M106-169C34-169 62-67 57 0H25v-261h32l-1 103c12-21 28-36 61-36 89 0 53 116 60 194h-32v-121c2-32-8-49-39-48" id="be"/><path fill="#333" d="M115-194c53 0 69 39 70 98 0 66-23 100-70 100C84 3 66-7 56-30L54 0H23l1-261h32v101c10-23 28-34 59-34zm-8 174c40 0 45-34 45-75 0-40-5-75-45-74-42 0-51 32-51 76 0 43 10 73 51 73" id="bf"/><g id="U"><use transform="matrix(0.08024691358024691,0,0,0.08024691358024691,0,0)" xlink:href="#al"/><use transform="matrix(0.08024691358024691,0,0,0.08024691358024691,16.049382716049383,0)" xlink:href="#at"/><use transform="matrix(0.08024691358024691,0,0,0.08024691358024691,32.098765432098766,0)" xlink:href="#aF"/><use transform="matrix(0.08024691358024691,0,0,0.08024691358024691,46.54320987654321,0)" xlink:href="#be"/><use transform="matrix(0.08024691358024691,0,0,0.08024691358024691,62.592592592592595,0)" xlink:href="#bf"/><use transform="matrix(0.08024691358024691,0,0,0.08024691358024691,78.64197530864197,0)" xlink:href="#aq"/><use transform="matrix(0.08024691358024691,0,0,0.08024691358024691,94.69135802469135,0)" xlink:href="#at"/><use transform="matrix(0.08024691358024691,0,0,0.08024691358024691,110.74074074074073,0)" xlink:href="#ar"/><use transform="matrix(0.08024691358024691,0,0,0.08024691358024691,120.29012345679011,0)" xlink:href="#al"/></g><g id="V"><use transform="matrix(0.08024691358024691,0,0,0.08024691358024691,0,0)" xlink:href="#am"/><use transform="matrix(0.08024691358024691,0,0,0.08024691358024691,23.993827160493826,0)" xlink:href="#at"/><use transform="matrix(0.08024691358024691,0,0,0.08024691358024691,40.04320987654321,0)" xlink:href="#ao"/><use transform="matrix(0.08024691358024691,0,0,0.08024691358024691,56.092592592592595,0)" xlink:href="#at"/><use transform="matrix(0.08024691358024691,0,0,0.08024691358024691,72.14197530864197,0)" xlink:href="#ax"/><use transform="matrix(0.08024691358024691,0,0,0.08024691358024691,88.19135802469135,0)" xlink:href="#as"/></g><g id="W"><use transform="matrix(0.08024691358024691,0,0,0.08024691358024691,0,0)" xlink:href="#av"/><use transform="matrix(0.08024691358024691,0,0,0.08024691358024691,8.024691358024691,0)" xlink:href="#be"/><use transform="matrix(0.08024691358024691,0,0,0.08024691358024691,24.074074074074076,0)" xlink:href="#as"/></g><g id="X"><use transform="matrix(0.08024691358024691,0,0,0.08024691358024691,0,0)" xlink:href="#aH"/><use transform="matrix(0.08024691358024691,0,0,0.08024691358024691,20.78395061728395,0)" xlink:href="#be"/><use transform="matrix(0.08024691358024691,0,0,0.08024691358024691,36.83333333333333,0)" xlink:href="#aq"/><use transform="matrix(0.08024691358024691,0,0,0.08024691358024691,52.8827160493827,0)" xlink:href="#aG"/><use transform="matrix(0.08024691358024691,0,0,0.08024691358024691,59.22222222222221,0)" xlink:href="#as"/></g><path fill="#333" d="M33 0v-38h34V0H33" id="bg"/><g id="Y"><use transform="matrix(0.08024691358024691,0,0,0.08024691358024691,0,0)" xlink:href="#aF"/><use transform="matrix(0.08024691358024691,0,0,0.08024691358024691,14.444444444444443,0)" xlink:href="#aI"/><use transform="matrix(0.08024691358024691,0,0,0.08024691358024691,28.888888888888886,0)" xlink:href="#aF"/><use transform="matrix(0.08024691358024691,0,0,0.08024691358024691,43.33333333333333,0)" xlink:href="#av"/><use transform="matrix(0.08024691358024691,0,0,0.08024691358024691,51.358024691358025,0)" xlink:href="#as"/><use transform="matrix(0.08024691358024691,0,0,0.08024691358024691,67.4074074074074,0)" xlink:href="#am"/><use transform="matrix(0.08024691358024691,0,0,0.08024691358024691,91.40123456790123,0)" xlink:href="#bg"/></g><path fill="#333" d="M240-174c0 40-23 61-54 70L253 0h-59l-57-94H76V0H24v-248c93 4 217-23 216 74zM76-134c48-2 112 12 112-38 0-48-66-32-112-35v73" id="bh"/><path fill="#333" d="M24 0v-248h195v40H76v63h132v40H76v65h150V0H24" id="bi"/><path fill="#333" d="M136-208V0H84v-208H4v-40h212v40h-80" id="bj"/><g id="Z"><use transform="matrix(0.04938271604938272,0,0,0.04938271604938272,0,0)" xlink:href="#bh"/><use transform="matrix(0.04938271604938272,0,0,0.04938271604938272,12.790123456790125,0)" xlink:href="#bi"/><use transform="matrix(0.04938271604938272,0,0,0.04938271604938272,24.641975308641978,0)" xlink:href="#aO"/><use transform="matrix(0.04938271604938272,0,0,0.04938271604938272,36.49382716049383,0)" xlink:href="#bj"/></g><path fill="#333" d="M24-248c93 1 206-16 204 79-1 75-69 88-152 82V0H24v-248zm52 121c47 0 100 7 100-41 0-47-54-39-100-39v80" id="bk"/><path fill="#333" d="M24 0v-248h52V0H24" id="bl"/><g id="aa"><use transform="matrix(0.04938271604938272,0,0,0.04938271604938272,0,0)" xlink:href="#aJ"/><use transform="matrix(0.04938271604938272,0,0,0.04938271604938272,12.790123456790125,0)" xlink:href="#bk"/><use transform="matrix(0.04938271604938272,0,0,0.04938271604938272,24.641975308641978,0)" xlink:href="#bl"/></g><path fill="#333" d="M67-125c0 53 21 87 73 88 37 1 54-22 65-47l45 17C233-25 199 4 140 4 58 4 20-42 15-125 8-235 124-281 211-232c18 10 29 29 36 50l-46 12c-8-25-30-41-62-41-52 0-71 34-72 86" id="bm"/><g id="ab"><use transform="matrix(0.0987654320987654,0,0,0.0987654320987654,0,0)" xlink:href="#bm"/><use transform="matrix(0.0987654320987654,0,0,0.0987654320987654,25.58024691358024,0)" xlink:href="#ba"/><use transform="matrix(0.0987654320987654,0,0,0.0987654320987654,47.20987654320986,0)" xlink:href="#aQ"/><use transform="matrix(0.0987654320987654,0,0,0.0987654320987654,61.03703703703702,0)" xlink:href="#aP"/></g><path fill="#333" d="M238-95c0 69-44 99-111 99C63 4 22-25 22-93v-155h51v151c-1 38 19 59 55 60 90 1 49-130 58-211h52v153" id="bn"/><g id="ac"><use transform="matrix(0.0987654320987654,0,0,0.0987654320987654,0,0)" xlink:href="#bn"/><use transform="matrix(0.0987654320987654,0,0,0.0987654320987654,25.58024691358024,0)" xlink:href="#aT"/><use transform="matrix(0.0987654320987654,0,0,0.0987654320987654,45.333333333333314,0)" xlink:href="#aP"/><use transform="matrix(0.0987654320987654,0,0,0.0987654320987654,65.08641975308639,0)" xlink:href="#aQ"/></g><path fill="#333" d="M24 0v-248h52v208h133V0H24" id="bo"/><path fill="#333" d="M147 0L96-86 75-71V0H25v-261h50v150l67-79h53l-66 74L201 0h-54" id="bp"/><g id="ad"><use transform="matrix(0.0987654320987654,0,0,0.0987654320987654,0,0)" xlink:href="#bo"/><use transform="matrix(0.0987654320987654,0,0,0.0987654320987654,21.629629629629623,0)" xlink:href="#aM"/><use transform="matrix(0.0987654320987654,0,0,0.0987654320987654,31.506172839506164,0)" xlink:href="#aN"/><use transform="matrix(0.0987654320987654,0,0,0.0987654320987654,53.13580246913578,0)" xlink:href="#bp"/></g></defs></g></svg>